<svg width="352" height="173" viewBox="0 0 352 173" fill="none" xmlns="http://www.w3.org/2000/svg">
<g filter="url(#filter0_d)">
<path d="M293.052 63.2896C284.574 63.2896 276.581 65.3862 269.545 69.0517C261.481 54.1471 245.696 44.0206 227.556 44.0206C220.676 44.0206 214.154 45.4897 208.259 48.0997C199.168 20.2589 173.006 0.134163 142.121 0.134163C107.91 0.134163 79.4937 24.823 73.6848 57.3563C68.0472 55.4023 61.9957 54.3326 55.6873 54.3326C25.1872 54.3326 0.453125 79.0499 0.453125 109.529C0.453125 140.009 25.1872 164.726 55.6873 164.726H293.052C321.083 164.726 343.804 142.02 343.804 114.008C343.804 85.9958 321.083 63.2896 293.052 63.2896Z" fill="white" fill-opacity="0.8"/>
</g>
<defs>
<filter id="filter0_d" x="0.453125" y="0.134163" width="351.351" height="172.592" filterUnits="userSpaceOnUse" color-interpolation-filters="sRGB">
<feFlood flood-opacity="0" result="BackgroundImageFix"/>
<feColorMatrix in="SourceAlpha" type="matrix" values="0 0 0 0 0 0 0 0 0 0 0 0 0 0 0 0 0 0 127 0"/>
<feOffset dx="4" dy="4"/>
<feGaussianBlur stdDeviation="2"/>
<feColorMatrix type="matrix" values="0 0 0 0 0.129167 0 0 0 0 0.129167 0 0 0 0 0.129167 0 0 0 0.1 0"/>
<feBlend mode="normal" in2="BackgroundImageFix" result="effect1_dropShadow"/>
<feBlend mode="normal" in="SourceGraphic" in2="effect1_dropShadow" result="shape"/>
</filter>
</defs>
</svg>
